<svg width="1600" height="900" viewBox="0 0 1600 900" fill="none" xmlns="http://www.w3.org/2000/svg">
<mask id="mask0_5_103" style="mask-type:luminance" maskUnits="userSpaceOnUse" x="0" y="0" width="1600" height="900">
<path d="M1600 0H0V900H1600V0Z" fill="white"/>
</mask>
<g mask="url(#mask0_5_103)">
<path d="M-1013.6 1079.55C-995.333 993.488 -892.133 942.187 -792.533 932.175C-692.933 922.05 -591.467 941.737 -490.8 941.737C-221.067 941.625 33.2 785.025 121.467 564.638C149.733 493.988 162.133 418.725 189.733 347.85C217.333 276.975 264.133 208.013 340.133 174.263C449.467 125.775 586.4 163.125 696.667 217.35C806.934 271.575 910.267 343.35 1032.53 368.212C1193.2 400.837 1360 344.7 1482.93 254.138C1605.73 163.575 1692.53 41.85 1777.33 -77.85" stroke="#2B3640" stroke-miterlimit="10"/>
<path d="M-1019.6 1071.23C-999.6 985.613 -896.667 934.425 -796.933 924.075C-753.867 919.575 -710.267 920.7 -666.667 923.737C-609.467 927.675 -552.133 934.65 -495.2 935.662C-379.067 937.8 -265.867 912.712 -166.4 864C-89.6 826.425 -21.2 776.812 33.3334 717.3C72.4 675 103.467 627.3 125.2 575.55C134.933 552.375 142.933 528.637 150.267 504.675C165.2 455.962 177.467 406.463 196.8 359.325C218.8 305.888 252 254.137 301.333 218.925C316.667 207.9 333.333 198.45 351.6 191.025C428.267 159.975 516.933 170.663 601.733 197.1C638.4 208.575 674.4 222.862 707.867 238.275C745.334 255.487 782 274.05 818.534 291.712C890.267 326.587 961.067 358.65 1037.73 370.35C1087.6 377.888 1136.8 375.975 1185.47 366.75C1284.4 348.075 1381.6 298.237 1462.67 234.675C1484.93 217.237 1506.13 198.9 1526.67 179.775C1617.87 94.8375 1694.13 -3.37499 1769.33 -95.9625" stroke="#2B3640" stroke-miterlimit="10"/>
<path d="M-1025.6 1062.79C-1003.73 977.625 -901.2 926.437 -801.333 915.75C-758.133 911.137 -714.533 912.262 -670.8 915.412C-613.6 919.575 -556.267 927.225 -499.467 929.362C-383.6 933.75 -270.533 912.713 -170.133 866.025C-92.5334 830.025 -23.0667 782.775 33.6 725.513C74.1333 684.563 106.4 637.65 129.067 586.237C139.2 563.287 147.467 539.55 155.2 515.587C170.8 466.987 183.733 417.375 203.867 370.687C226.8 317.587 261.2 267.075 312.133 233.55C327.867 223.2 344.667 214.312 363.067 207.562C440.133 179.325 527.6 192.6 612.267 219.15C649.067 230.625 685.334 244.462 719.2 258.862C757.067 274.95 794.134 291.825 830.534 307.35C902 338.175 970.934 365.288 1043.2 372.038C1090 376.425 1134.67 371.363 1179.6 359.663C1270.67 335.7 1363.07 281.362 1442.8 214.875C1464.67 196.65 1485.87 177.525 1506.53 157.95C1598.67 70.425 1680.67 -26.8875 1761.6 -114.525" stroke="#2B3640" stroke-miterlimit="10"/>
<path d="M-1031.6 1054.35C-1007.87 969.637 -905.733 918.45 -805.733 907.537C-762.533 902.812 -718.667 903.825 -674.933 907.2C-617.6 911.7 -560.533 920.025 -503.733 923.175C-388 929.812 -275.333 912.825 -173.867 868.162C-95.4668 833.737 -24.8001 788.85 33.8666 733.838C75.9999 694.238 109.333 648.112 132.933 596.925C143.467 574.087 152.133 550.575 160.267 526.5C176.533 478.012 190.133 428.287 211.067 381.937C234.933 329.175 270.4 279.9 323.067 248.062C339.2 238.387 356.133 230.063 374.533 224.1C451.867 198.675 538.267 214.65 622.8 241.2C659.733 252.788 696.133 266.063 730.4 279.45C768.667 294.413 806 309.6 842.4 323.1C913.6 349.65 980.8 372.037 1048.53 373.837C1092.4 374.962 1132.53 366.975 1173.47 352.687C1256.67 323.662 1344.27 264.487 1422.53 195.187C1444 176.062 1465.07 156.375 1485.87 136.237C1578.8 46.125 1666.53 -50.2875 1753.47 -132.863" stroke="#2B3640" stroke-miterlimit="10"/>
<path d="M-1037.6 1045.91C-1012 961.762 -910.267 910.462 -810 899.325C-766.667 894.487 -722.8 895.387 -678.933 899.1C-621.6 903.825 -564.533 912.825 -507.867 917.1C-392.4 925.875 -279.867 913.05 -177.6 870.525C-98.2667 837.675 -26.4 795.262 34 742.387C77.8667 704.137 112.133 658.8 136.533 607.95C147.467 585.337 156.533 561.825 164.933 537.75C181.867 489.262 196.133 439.65 218 393.525C242.8 341.212 279.333 292.95 333.733 263.025C350.267 253.912 367.334 246.375 385.867 240.975C463.6 218.363 548.667 237.037 633.334 263.587C670.267 275.287 707.067 288 741.6 300.487C780.267 314.437 818 327.825 854.134 339.3C925.067 361.8 990.534 379.125 1053.6 376.087C1094.53 374.062 1130.13 362.925 1167.2 346.05C1242.67 311.85 1325.2 248.063 1402.27 175.95C1423.47 156.038 1444.4 135.562 1465.33 114.862C1559.07 22.275 1652.53 -73.4625 1745.33 -150.863" stroke="#2B3640" stroke-miterlimit="10"/>
<path d="M-1043.6 1037.47C-1016.13 953.775 -914.8 902.475 -814.4 891.112C-771.067 886.162 -727.067 887.063 -683.067 890.888C-625.733 895.838 -568.667 905.512 -512.133 910.912C-396.933 921.937 -284.667 913.05 -181.333 872.662C-101.2 841.387 -28.1334 801.45 34.2666 750.825C79.7333 713.925 115.067 669.263 140.4 618.75C151.733 596.25 161.2 572.85 169.867 548.888C187.467 500.513 202.4 450.787 225.067 405.112C250.8 353.137 288.4 306.113 344.534 277.875C361.334 269.438 378.667 262.462 397.2 257.737C475.2 238.05 559.2 259.2 643.733 285.975C680.8 297.675 717.867 309.938 752.8 321.413C791.867 334.238 829.867 345.937 866 355.275C936.667 373.612 1000.67 386.1 1058.93 378.112C1097.07 372.937 1127.87 358.65 1161.2 339.3C1228.93 299.812 1306.53 231.525 1382.27 156.487C1403.07 135.787 1424 114.638 1445.07 93.375C1539.6 -1.79999 1638.93 -96.6375 1737.6 -168.975" stroke="#2B3640" stroke-miterlimit="10"/>
<path d="M-1049.73 1029.15C-1020.4 945.9 -919.467 894.712 -818.934 883.012C-775.467 877.95 -731.334 878.737 -687.334 882.787C-629.867 888.075 -573.067 898.425 -516.534 904.837C-401.467 918 -289.467 913.275 -185.2 874.912C-104.267 845.325 -29.8668 807.75 34.3999 759.262C81.5999 723.712 117.867 679.838 144.133 629.663C155.733 607.275 165.6 583.987 174.8 560.025C193.067 511.762 208.8 461.925 232.133 416.587C258.8 365.062 297.467 319.05 355.333 292.612C372.533 284.737 390 278.437 408.667 274.387C486.933 257.512 569.733 281.362 654.267 308.137C691.467 319.95 728.8 331.65 764 342.112C803.467 353.812 841.733 363.825 877.867 371.137C948.267 385.425 1010.93 392.737 1064.27 380.025C1099.73 371.587 1125.73 354.262 1155.07 332.325C1214.93 287.662 1287.73 214.65 1362.13 136.8C1382.53 115.2 1403.47 93.375 1424.67 71.6625C1520.13 -26.1 1625.07 -120.038 1729.6 -187.425" stroke="#2B3640" stroke-miterlimit="10"/>
<path d="M-1055.73 1020.71C-1024.53 938.025 -924 886.725 -823.334 874.688C-779.867 869.513 -735.6 870.3 -691.467 874.575C-634 880.088 -577.2 891.113 -520.8 898.65C-406 914.063 -294.133 913.387 -188.933 877.05C-107.2 849.037 -31.4668 813.938 34.6666 767.588C83.4666 733.388 120.8 690.3 148 640.462C160 618.3 170.267 595.012 179.733 571.05C198.667 522.787 215.067 472.95 239.2 427.95C266.8 376.763 306.533 331.875 366.133 307.35C383.6 300.15 401.333 294.412 420 291.037C498.667 276.975 580.267 303.525 664.667 330.3C701.867 342.112 739.6 353.362 775.067 362.812C814.8 373.387 853.6 381.713 889.6 386.888C959.733 397.013 1021.07 399.15 1069.33 381.825C1102.27 370.013 1123.2 349.762 1148.8 325.35C1200.93 275.4 1268.8 197.887 1341.87 117.112C1362 94.725 1382.67 72.225 1404.13 49.95C1500.4 -50.4 1611.2 -143.55 1721.6 -205.763" stroke="#2B3640" stroke-miterlimit="10"/>
<path d="M-1061.73 1012.28C-1028.67 930.038 -928.533 878.737 -827.6 866.475C-784 861.187 -739.6 861.862 -695.467 866.362C-638 872.212 -581.2 883.913 -525.067 892.463C-410.533 910.125 -298.933 913.5 -192.667 879.3C-110.133 852.862 -33.2001 820.238 34.9333 776.025C85.4666 743.175 123.733 700.875 151.867 651.263C164.267 629.213 174.933 606.038 184.8 582.075C204.4 533.925 221.467 483.975 246.4 439.312C274.933 388.462 315.6 344.7 377.067 321.975C394.933 315.338 412.8 310.275 431.6 307.688C510.533 296.438 590.933 325.575 675.333 352.462C712.667 364.387 750.667 375.075 786.533 383.625C826.667 393.188 865.733 399.712 901.733 402.862C971.6 408.937 1031.87 405.675 1074.93 383.85C1105.33 368.55 1121.33 345.488 1142.93 318.6C1187.2 263.363 1250.27 181.35 1321.87 97.65C1341.6 74.475 1362.27 51.1875 1383.87 28.4625C1480.93 -74.475 1597.47 -166.725 1713.73 -223.875" stroke="#2B3640" stroke-miterlimit="10"/>
<path d="M-1067.73 1003.84C-1032.8 922.05 -933.067 870.75 -832 858.262C-788.4 852.862 -743.867 853.425 -699.6 858.15C-642.133 864.225 -585.467 876.6 -529.333 886.387C-414.933 906.187 -303.6 913.725 -196.4 881.55C-113.067 856.687 -34.8 826.537 35.2 784.575C87.4666 753.187 126.667 711.562 155.733 662.287C168.533 640.462 179.467 617.287 189.733 593.325C210.133 545.287 227.733 495.225 253.467 451.012C282.933 400.612 324.667 357.862 387.867 337.05C406 331.087 424.133 326.7 442.933 324.675C522.133 316.237 601.467 348.075 685.733 374.962C723.2 386.887 761.333 397.125 797.6 404.662C838.133 413.1 877.467 417.937 913.333 418.95C982.933 420.862 1041.87 411.975 1080 385.987C1107.73 367.087 1118.8 341.325 1136.67 311.85C1173.2 251.325 1231.2 164.7 1301.6 78.1875C1321.07 54.225 1341.6 30.2625 1363.33 6.86249C1461.2 -98.6625 1583.6 -190.013 1705.73 -242.213" stroke="#2B3640" stroke-miterlimit="10"/>
<path d="M-1073.73 995.4C-1037.07 914.062 -937.6 862.875 -836.4 850.05C-792.667 844.537 -748.134 845.1 -703.867 849.937C-646.267 856.35 -589.734 869.287 -533.734 880.2C-419.6 902.25 -308.533 913.725 -200.267 883.687C-116 860.4 -36.4001 832.837 35.3332 792.9C89.3332 762.862 129.467 722.025 159.467 672.975C172.667 651.263 184 628.2 194.533 604.237C215.6 556.2 233.866 506.137 260.4 462.262C290.8 412.2 333.467 370.462 398.533 351.562C417.067 346.162 435.333 342.45 454.267 341.1C533.867 335.588 611.867 369.9 696.133 397.012C733.6 409.05 772.133 418.725 808.667 425.25C849.6 432.562 889.2 435.825 925.067 434.7C994.267 432.562 1052 417.713 1085.07 387.788C1110.27 365.063 1116.4 336.825 1130.27 304.875C1158.93 239.062 1212.13 147.937 1281.2 58.5C1300.27 33.6375 1320.67 9.11244 1342.67 -14.8501C1441.47 -122.963 1569.47 -213.413 1697.6 -260.55" stroke="#2B3640" stroke-miterlimit="10"/>
<path d="M-1079.73 987.075C-1041.2 906.3 -942.134 855 -840.8 841.95C-797.067 836.325 -752.267 836.775 -708 841.95C-650.4 848.588 -593.867 862.312 -538 874.237C-424 898.537 -313.2 914.062 -204 886.05C-118.933 864.45 -38.0002 839.25 35.5998 801.45C91.1998 772.875 132.4 732.712 163.333 684C176.933 662.512 188.667 639.45 199.6 615.487C221.333 567.562 240.266 517.5 267.733 473.85C299.066 424.238 342.666 383.513 409.733 366.413C428.533 361.575 447.067 358.537 466.133 357.862C546 355.162 622.933 392.175 707.067 419.288C744.667 431.438 783.467 440.55 820.4 446.175C861.733 452.362 901.733 453.938 937.467 450.788C1006.4 444.6 1062.53 423.788 1090.93 390.038C1113.2 363.488 1114.67 332.775 1124.8 298.237C1145.6 227.137 1194 131.512 1261.73 39.2625C1280.4 13.6125 1300.8 -11.7 1322.8 -36.1125C1422.4 -146.7 1556.13 -236.475 1690.13 -278.438" stroke="#2B3640" stroke-miterlimit="10"/>
<path d="M-1085.73 978.637C-1045.33 898.312 -946.667 847.013 -845.067 833.625C-801.2 827.888 -756.4 828.225 -712 833.625C-654.4 840.488 -598 854.887 -542.133 867.937C-428.4 894.375 -317.733 914.062 -207.733 888.187C-121.867 868.162 -39.6 845.55 35.7333 809.775C93.0667 782.55 135.2 743.175 167.067 694.8C181.067 673.425 193.2 650.475 204.4 626.513C226.8 578.7 246.4 528.525 274.667 485.325C306.8 436.05 351.467 396.338 420.4 381.263C439.6 377.1 458.267 374.625 477.333 374.625C557.467 374.738 633.2 414.45 717.333 441.563C755.067 453.713 794.133 462.375 831.333 466.988C873.067 472.163 913.333 471.938 949.067 466.65C1017.73 456.413 1072.13 429.525 1096 391.95C1115.33 361.463 1112.13 328.388 1118.4 291.375C1131.33 214.988 1174.93 114.75 1241.33 19.6875C1259.73 -6.74996 1280 -32.7375 1302.13 -57.7125C1402.53 -170.887 1542.13 -259.762 1682 -296.662" stroke="#2B3640" stroke-miterlimit="10"/>
<path d="M-1091.87 970.2C-1049.6 890.325 -951.467 839.025 -849.6 825.412C-805.733 819.562 -760.667 819.9 -716.267 825.412C-658.533 832.612 -602.267 847.575 -546.533 861.75C-433.067 890.437 -322.667 914.175 -211.6 890.325C-124.933 871.875 -41.3334 851.737 35.8666 818.212C94.9333 792.45 138 753.75 170.8 705.6C185.2 684.337 197.6 661.5 209.333 637.538C232.4 589.725 252.667 539.55 281.733 496.687C314.8 447.862 360.4 409.05 431.2 395.887C450.667 392.287 469.6 390.6 488.8 391.275C569.333 394.2 643.867 436.5 728 463.725C765.733 475.988 805.2 484.087 842.667 487.687C884.8 491.737 925.333 489.937 961.067 482.512C1029.33 468.225 1081.87 435.375 1101.47 393.862C1117.6 359.55 1110 324 1112.53 284.4C1117.6 202.725 1156.27 97.9875 1221.33 -4.19617e-05C1239.33 -27.3375 1259.6 -54 1281.87 -79.425C1383.2 -195.188 1528.4 -283.163 1674.13 -315.113" stroke="#2B3640" stroke-miterlimit="10"/>
<path d="M-1097.87 961.763C-1053.73 882.45 -956 831.038 -854 817.2C-810 811.238 -764.933 811.463 -720.4 817.313C-662.667 824.738 -606.533 840.487 -550.933 855.675C-437.6 886.612 -327.467 914.4 -215.467 892.575C-128 875.7 -42.9333 858.15 36 826.65C96.8 802.35 140.8 764.325 174.533 716.513C189.333 695.475 202.133 672.638 214.133 648.788C237.867 601.088 258.8 550.8 288.667 508.275C322.667 459.788 369.2 421.987 441.867 410.737C461.733 407.7 480.8 406.688 500 408.038C580.8 413.775 654.133 458.775 738.267 486C776.133 498.263 815.733 505.913 853.733 508.5C896.133 511.425 937.067 507.938 972.667 498.375C1040.67 480.15 1091.07 441.225 1106.4 395.775C1119.33 357.637 1107.47 319.613 1106 277.538C1103.2 190.688 1137.07 81.3375 1200.8 -19.575C1218.53 -47.7 1238.53 -75.0375 1261.07 -101.138C1363.2 -219.488 1514.27 -306.675 1665.87 -333.45" stroke="#2B3640" stroke-miterlimit="10"/>
<path d="M-1103.87 953.325C-1057.87 874.463 -960.533 823.163 -858.4 808.988C-814.4 802.913 -769.067 803.137 -724.533 809.1C-666.8 816.862 -610.667 833.175 -555.2 849.488C-442.133 882.563 -332.267 914.4 -219.2 894.825C-130.933 879.638 -44.5335 864.563 36.2665 835.088C98.9332 812.25 143.867 774.9 178.4 727.312C193.6 706.387 206.8 683.775 219.067 659.812C243.467 612.225 265.2 561.825 295.733 519.75C330.666 471.6 378.267 434.7 452.667 425.587C472.8 423.112 492.267 422.775 511.467 424.8C592.667 433.35 664.8 481.05 748.8 508.387C786.8 520.762 826.667 527.85 864.933 529.537C907.733 531.337 949.067 526.275 984.533 514.575C1052.27 492.3 1100.4 447.525 1111.73 398.025C1121.33 356.062 1105.2 315.562 1100 271.012C1089.2 178.875 1118.4 64.9125 1180.8 -38.8125C1198.13 -67.725 1218.13 -95.85 1240.8 -122.4C1343.73 -243.338 1500.53 -329.625 1658 -351.338" stroke="#2B3640" stroke-miterlimit="10"/>
<path d="M-1109.87 945C-1062 866.588 -965.067 815.288 -862.667 800.888C-818.533 794.7 -773.2 794.813 -728.533 801C-670.667 808.988 -614.667 826.087 -559.333 843.412C-446.533 878.737 -336.8 914.625 -222.8 897.075C-133.6 883.463 -46 870.975 36.6667 843.525C101.067 822.15 146.933 785.362 182.4 738.225C198 717.525 211.6 694.912 224.267 670.95C249.333 623.362 271.733 572.962 303.067 531.225C338.933 483.525 387.467 447.412 463.733 440.325C484.133 438.412 503.867 438.75 523.067 441.45C604.533 452.925 675.467 503.1 759.467 530.55C797.6 542.925 837.733 549.562 876.267 550.237C919.467 551.025 961.067 544.162 996.533 530.325C1064 504 1109.87 453.487 1117.2 399.825C1123.33 354.262 1102.93 311.062 1094 263.925C1075.07 166.5 1099.73 48.0375 1160.8 -58.6125C1177.73 -88.3125 1197.73 -117.113 1220.53 -144.225C1324.13 -267.75 1486.67 -353.25 1650.13 -369.9" stroke="#2B3640" stroke-miterlimit="10"/>
<path d="M-1115.87 936.562C-1066.13 858.6 -969.6 807.3 -867.067 792.562C-822.933 786.263 -777.467 786.262 -732.667 792.675C-674.8 801 -618.933 818.662 -563.6 837.112C-450.933 874.687 -341.6 914.625 -226.533 899.1C-136.533 887.062 -47.4667 877.275 36.9333 851.737C103.067 831.825 149.867 795.712 186.267 748.912C202.133 728.325 216.133 705.825 229.2 681.862C255.067 634.387 278 583.988 310.133 542.475C346.933 495.113 396.4 460.012 474.533 454.837C495.333 453.487 515.2 454.612 534.533 457.875C616.267 472.162 686.133 525.037 770 552.487C808.133 564.975 848.667 571.05 887.467 570.712C931.067 570.375 972.933 561.937 1008.4 545.962C1075.6 515.587 1119.2 459.338 1122.4 401.513C1125.07 352.238 1100.53 306.45 1087.87 256.837C1061.2 154.237 1080.8 31.1625 1140.67 -78.4125C1157.33 -109.013 1177.07 -138.488 1200.13 -166.05C1304.53 -291.938 1472.8 -376.537 1642.13 -388.125" stroke="#2B3640" stroke-miterlimit="10"/>
<path d="M-1121.87 928.125C-1070.27 850.725 -974.133 799.312 -871.467 784.35C-827.2 777.937 -781.6 777.937 -736.8 784.575C-678.933 793.125 -623.067 811.462 -567.867 831.037C-455.467 870.75 -346.267 914.85 -230.267 901.35C-139.467 890.887 -49.0667 883.687 37.2 860.287C105.067 841.837 152.8 806.4 190.133 759.825C206.4 739.462 220.8 716.962 234.267 693C260.8 645.637 284.4 595.125 317.467 554.062C355.2 507.15 405.6 472.725 485.6 469.8C506.667 469.012 526.8 470.812 546.133 474.862C628.267 491.962 696.8 547.537 780.667 574.987C818.933 587.587 859.733 593.1 898.933 591.75C942.933 590.287 985.2 580.275 1020.53 562.162C1087.47 527.85 1128.8 465.863 1128 403.763C1127.33 350.888 1098.67 302.4 1082 250.2C1047.47 142.313 1062.27 14.625 1120.67 -97.65C1136.93 -129.038 1156.67 -159.188 1179.87 -187.425C1285.33 -316.013 1459.33 -399.825 1634.53 -406.35" stroke="#2B3640" stroke-miterlimit="10"/>
<path d="M-1127.87 919.688C-1074.53 842.737 -978.667 791.438 -875.867 776.138C-831.6 769.613 -785.867 769.5 -740.933 776.362C-683.067 785.137 -627.2 804.262 -572.133 824.85C-460 866.812 -350.933 914.962 -234.133 903.6C-142.533 894.712 -50.8 890.1 37.3334 868.725C106.933 851.737 155.6 816.975 193.733 770.737C210.4 750.487 225.2 728.1 238.933 704.138C266.133 656.775 290.4 606.263 324.267 565.538C362.933 518.963 414.4 485.438 496.133 484.538C517.6 484.313 537.867 486.788 557.333 491.513C639.733 511.425 707.2 569.587 790.933 597.15C829.333 609.75 870.4 614.812 909.867 612.562C954.267 609.975 996.933 598.387 1032 578.025C1098.8 539.775 1137.73 472.162 1132.93 405.675C1128.8 349.312 1096 298.012 1075.6 243.337C1033.2 130.162 1043.2 -2.02501 1100.27 -117.225C1116.13 -149.4 1135.87 -180.225 1159.07 -209.025C1265.33 -340.2 1445.2 -423.113 1626.27 -424.688" stroke="#2B3640" stroke-miterlimit="10"/>
<path d="M-1134 911.362C-1078.8 834.862 -983.333 783.562 -880.267 768.037C-835.867 761.4 -790 761.175 -745.067 768.262C-687.067 777.375 -631.467 797.063 -576.533 818.775C-464.533 862.988 -355.867 915.075 -238 905.85C-145.6 898.65 -52.4 896.737 37.3334 877.162C108.667 861.862 158.267 827.55 197.333 781.537C214.4 761.4 229.467 739.125 243.6 715.162C271.467 667.912 296.4 617.288 331.067 576.9C370.667 530.663 423.067 498.038 506.667 499.163C528.4 499.5 548.933 502.65 568.4 508.05C651.067 530.775 717.333 591.638 801.067 619.313C839.467 632.025 880.8 636.525 920.667 633.263C965.467 629.663 1008.4 616.275 1043.47 593.888C1110 551.588 1146.67 478.463 1137.73 407.588C1130.13 347.625 1093.2 293.738 1068.93 236.475C1018.67 118.125 1023.87 -18.675 1079.6 -136.8C1095.2 -169.762 1114.67 -201.375 1138.13 -230.625C1245.2 -364.387 1430.8 -446.4 1617.73 -442.912" stroke="#2B3640" stroke-miterlimit="10"/>
<path d="M-1140 902.925C-1058.27 794.137 -898.933 735.862 -749.2 760.05C-572.933 788.512 -418.8 918.675 -241.733 907.987C-148.533 902.362 -54.0002 903.037 37.5998 885.487C142.533 865.462 201.067 804.938 248.667 726.188C309.867 625.05 357.6 507.825 517.6 513.9C633.333 518.287 708.4 607.275 811.733 641.475C893.6 668.588 989.333 656.1 1055.6 609.75C1121.87 563.4 1156.4 484.763 1143.33 409.5C1132.4 346.05 1091.33 289.35 1063.2 229.5C988.8 71.325 1010.13 -115.988 1118.13 -252.338C1226.13 -388.688 1417.33 -469.913 1610.27 -461.25" stroke="#2B3640" stroke-miterlimit="10"/>
<path d="M-1130.53 918.45C-1047.6 818.213 -889.2 763.988 -740.533 786.15C-666.133 797.175 -595.6 825.187 -526 852.3C-454.667 880.2 -384.4 907.312 -311.067 915.188C-287.467 917.775 -263.467 918.338 -239.2 916.2C-147.867 908.213 -55.7333 906.3 35.4667 888.188C138.8 867.712 198.533 809.662 247.733 735.3C259.067 718.2 270 700.762 281.2 683.55C314 632.925 348.933 585 404.267 558.337C435.2 543.487 472.4 535.05 518.667 536.4C632.933 539.662 707.6 621 807.733 650.25C821.067 654.075 834.667 656.887 848.4 658.688C916.8 667.463 989.2 650.813 1042 611.663C1105.47 564.638 1138.27 486.787 1126.4 412.312C1116.4 349.2 1077.87 292.163 1052 232.312C1007.33 129.037 1002.27 13.95 1034.4 -90.675C1051.73 -146.588 1079.6 -199.35 1117.73 -245.925C1187.2 -330.975 1289.47 -393.862 1404.27 -427.05C1470.27 -446.175 1540.4 -455.175 1610.67 -452.587" stroke="#2B3640" stroke-miterlimit="10"/>
<path d="M-1121.07 934.087C-1036.93 842.287 -879.467 792.225 -731.867 812.475C-657.734 822.6 -587.467 848.025 -518.534 872.1C-447.867 896.85 -379.067 920.362 -306.933 925.762C-283.733 927.562 -260.267 927.337 -236.534 924.637C-147.2 914.4 -57.2002 909.9 33.4665 891C135.333 870.075 196 814.275 246.933 744.412C258.666 728.325 270.133 712.012 281.6 695.925C315.466 648.675 350.8 604.35 406.133 579.825C437.2 566.1 474.133 558.113 519.6 559.013C632.4 561.15 706.8 634.95 803.733 659.25C816.666 662.4 829.733 664.65 843.066 665.888C908.933 671.85 978.133 653.513 1028.53 613.913C1089.07 566.213 1120.4 489.15 1109.47 415.35C1100.27 352.575 1064.53 295.313 1040.93 235.35C1000.13 132.075 997.866 17.4375 1031.73 -85.95C1050.13 -141.413 1078.93 -193.5 1117.6 -239.288C1188.13 -322.875 1290.53 -384.413 1405.47 -417.488C1471.33 -436.5 1541.2 -445.725 1611.33 -443.7" stroke="#2B3640" stroke-miterlimit="10"/>
<path d="M-1111.73 949.725C-1026.4 866.475 -869.867 820.35 -723.2 838.687C-649.467 847.8 -579.467 870.75 -511.2 891.9C-441.2 913.5 -373.733 933.525 -303.067 936.338C-280.267 937.238 -257.467 936.338 -234.133 933.075C-146.667 920.475 -59.0668 913.275 31.0666 893.812C131.333 872.212 193.2 819 245.6 753.525C257.733 738.45 269.6 723.262 281.467 708.3C316.4 664.537 352.267 623.7 407.467 601.312C438.667 588.6 475.467 581.175 520.133 581.625C631.467 582.525 705.467 649.013 799.2 668.138C811.6 670.725 824.4 672.187 837.067 672.862C900.4 676.125 966.267 656.1 1014.27 615.825C1072 567.45 1101.73 491.175 1091.87 418.05C1083.6 355.5 1050.4 298.125 1029.07 238.05C992.133 134.662 992.267 20.7 1028.13 -81.45C1047.47 -136.575 1077.33 -187.875 1116.53 -232.875C1188.13 -315.113 1290.67 -375.188 1405.87 -408.263C1471.6 -427.163 1541.33 -436.5 1611.2 -435.038" stroke="#2B3640" stroke-miterlimit="10"/>
<path d="M-1102.27 965.363C-1015.73 890.663 -860.133 848.588 -714.533 864.9C-641.067 873 -571.467 893.588 -503.867 911.588C-434.667 930.15 -368.4 946.463 -299.067 946.688C-276.8 946.8 -254.4 945.225 -231.6 941.288C-146.133 926.55 -60.6666 916.538 28.9334 896.513C127.6 874.463 190.667 823.613 244.667 762.525C257.2 748.463 269.467 734.4 281.733 720.675C317.733 680.287 354.134 643.05 409.2 622.687C440.534 611.1 477.2 604.35 521.067 604.125C630.933 603.675 704.667 662.738 795.067 676.913C807.067 678.825 819.334 679.725 831.6 679.837C892.4 680.287 955.067 658.575 1000.67 617.85C1055.47 568.8 1083.47 493.313 1074.8 420.975C1067.33 358.763 1036.93 301.05 1017.87 240.862C984.8 137.475 987.6 23.9625 1025.2 -76.8375C1045.6 -131.625 1076.27 -182.138 1116.13 -226.463C1188.8 -307.238 1291.6 -365.963 1406.8 -398.925C1472.4 -417.713 1541.87 -427.275 1611.6 -426.375" stroke="#2B3640" stroke-miterlimit="10"/>
<path d="M-1092.8 981C-1004.93 914.737 -850.533 876.825 -705.867 891.112C-632.8 898.2 -563.333 916.313 -496.4 931.275C-427.867 946.688 -363.067 959.513 -294.933 957.15C-273.067 956.475 -251.2 954.112 -229.067 949.612C-145.467 932.625 -62.3999 919.913 26.6668 899.213C123.733 876.6 188 828.113 243.6 771.525C256.533 758.363 269.333 745.537 281.867 732.937C318.8 695.925 355.733 662.4 410.933 644.062C442.4 633.6 478.8 627.075 522 626.625C630.4 625.5 703.733 676.575 790.933 685.8C802.533 687.037 814.267 687.262 826 686.812C884.267 684.45 943.733 661.162 986.933 619.875C1038.93 570.037 1065.33 495.45 1057.73 423.787C1051.2 361.912 1023.33 303.975 1006.67 243.675C977.6 140.287 982.933 27.3375 1022.27 -72.3375C1043.73 -126.788 1075.33 -176.513 1115.73 -220.05C1189.33 -299.363 1292.4 -356.625 1407.87 -389.588C1473.47 -408.263 1542.53 -418.05 1612 -417.713" stroke="#2B3640" stroke-miterlimit="10"/>
<path d="M-1083.47 996.525C-994.4 938.813 -840.933 904.838 -697.2 917.325C-624.4 923.4 -555.333 939.038 -489.067 951.075C-421.2 963.45 -357.733 972.563 -291.067 967.725C-269.6 966.15 -248.267 963.225 -226.667 958.05C-145.067 938.7 -64.1334 923.4 24.3999 902.025C119.867 878.963 185.333 832.838 242.533 780.638C255.867 768.488 269.067 756.788 282 745.313C320 711.788 357.467 681.75 412.533 665.55C444.267 656.212 480.4 650.137 522.8 649.237C629.733 646.987 702.8 690.525 786.667 694.688C797.867 695.25 809.066 694.913 820.266 693.9C876 688.725 932.266 663.863 973.066 622.013C1022.13 571.5 1046.93 497.813 1040.4 426.713C1034.67 365.175 1009.47 306.9 995.066 246.6C969.866 143.213 977.867 30.825 1018.93 -67.6125C1041.47 -121.612 1074 -170.662 1115.07 -213.412C1189.73 -291.375 1292.93 -347.175 1408.53 -380.025C1474 -398.7 1542.93 -408.6 1612.13 -408.712" stroke="#2B3640" stroke-miterlimit="10"/>
<path d="M-1074 1012.16C-983.733 962.887 -831.2 933.075 -688.533 943.537C-616.133 948.6 -547.2 961.763 -481.733 970.763C-414.533 979.988 -352.533 985.5 -287.067 978.188C-266.133 975.825 -245.2 972.112 -224.133 966.487C-144.4 944.887 -65.8667 926.888 22.1333 904.838C116.133 881.325 182.667 837.562 241.467 789.862C255.2 778.725 268.8 768.037 282.133 757.8C321.067 727.65 359.2 701.325 414.133 687.15C446 678.937 482 673.312 523.467 671.962C628.933 668.587 701.733 704.588 782.267 703.688C793.067 703.575 803.867 702.562 814.533 700.987C867.6 693 920.8 666.45 959.2 624.15C1005.47 572.962 1028.67 500.062 1023.2 429.75C1018.4 368.55 996 310.05 983.733 249.638C962.667 146.138 973.2 34.3125 1015.87 -62.775C1039.47 -116.437 1072.8 -164.7 1114.53 -206.775C1190.27 -283.275 1293.73 -337.725 1409.47 -370.575C1474.8 -389.138 1543.47 -399.15 1612.53 -399.938" stroke="#2B3640" stroke-miterlimit="10"/>
<path d="M-1064.53 1027.8C-973.067 987.075 -821.467 961.538 -679.867 969.75C-607.733 973.913 -539.2 984.6 -474.267 990.45C-407.867 996.525 -347.067 998.438 -282.933 988.65C-262.4 985.5 -242 981.113 -221.467 974.813C-143.6 950.963 -67.3334 930.375 20.1333 907.65C112.533 883.688 180.4 842.287 240.533 798.975C254.667 788.85 268.667 779.288 282.4 770.175C322.267 743.513 361.067 720.675 415.867 708.525C447.867 701.438 483.6 696.15 524.4 694.463C628.4 689.963 700.933 718.425 778.133 712.575C788.4 711.787 798.8 710.212 808.933 708.075C859.467 697.275 909.333 669.15 945.467 626.175C988.8 574.312 1010.53 502.2 1006 432.562C1002 371.587 982.267 312.975 972.267 252.45C955.067 148.95 968.267 37.6875 1012.8 -58.275C1037.47 -111.6 1071.73 -159.075 1114 -200.363C1190.8 -275.513 1294.4 -328.5 1410.27 -361.238C1475.47 -379.688 1543.87 -389.925 1612.8 -391.275" stroke="#2B3640" stroke-miterlimit="10"/>
<path d="M-1055.2 1043.44C-962.534 1011.15 -812 989.775 -671.2 995.963C-599.467 999.113 -531.067 1007.33 -466.933 1010.14C-401.2 1013.18 -341.867 1011.49 -279.067 999.112C-258.934 995.175 -239.067 990 -219.067 983.138C-143.2 956.925 -69.2002 933.75 17.8665 910.35C108.666 885.937 177.733 846.787 239.467 807.975C254 798.862 268.533 790.425 282.533 782.438C323.333 759.15 362.8 740.025 417.6 729.9C449.733 723.938 485.333 719.1 525.333 716.963C627.867 711.338 700.133 732.15 774.133 721.35C784 719.887 793.866 717.638 803.6 714.938C851.6 701.325 898.267 671.512 932 628.087C972.533 575.55 992.533 504.225 989.2 435.375C986.133 374.737 969.067 315.787 961.333 255.15C948 151.65 964 40.95 1010.13 -53.775C1035.87 -106.65 1071.07 -153.45 1113.87 -193.95C1191.6 -267.637 1295.47 -319.275 1411.6 -351.9C1476.67 -370.238 1544.93 -380.7 1613.6 -382.5" stroke="#2B3640" stroke-miterlimit="10"/>
<path d="M-1045.73 1059.08C-951.867 1035.34 -802.267 1017.9 -662.534 1022.17C-591.067 1024.31 -523.067 1030.05 -459.6 1029.94C-394.533 1029.83 -336.533 1024.65 -275.067 1009.58C-255.467 1004.74 -236 998.888 -216.533 991.463C-142.533 963 -70.8002 937.237 15.5998 913.05C104.933 888.187 175.2 851.4 238.4 816.975C253.333 808.875 268.267 801.563 282.667 794.7C324.4 774.788 364.533 759.375 419.2 751.275C451.6 746.438 486.8 742.05 526.133 739.463C627.2 732.713 699.2 745.988 769.867 730.125C779.333 727.988 788.667 725.175 797.867 721.912C843.333 705.487 886.8 674.1 918.133 630.112C955.733 576.9 974.267 506.363 971.867 438.188C969.733 377.888 955.2 318.713 949.733 257.963C940.4 154.463 958.933 44.2125 1006.8 -49.1625C1033.73 -101.7 1069.6 -147.712 1113.07 -187.537C1191.87 -259.762 1295.87 -310.05 1412.13 -342.675C1477.07 -360.9 1545.07 -371.475 1613.47 -373.95" stroke="#2B3640" stroke-miterlimit="10"/>
<path d="M-1036.27 1074.6C-941.2 1059.41 -792.533 1046.02 -653.867 1048.39C-582.8 1049.62 -515.067 1052.77 -452.133 1049.62C-387.867 1046.47 -331.2 1037.59 -270.933 1020.04C-251.733 1014.41 -232.8 1007.89 -214 999.787C-142 968.962 -72.4 940.612 13.4667 915.862C101.2 890.55 172.8 856.125 237.467 826.087C252.8 819 268.133 812.812 282.933 807.075C325.6 790.65 366.4 778.838 420.933 772.65C453.467 768.938 488.533 765 526.933 761.963C626.534 753.975 698.267 759.713 765.6 739.013C774.667 736.2 783.6 732.713 792.134 728.888C835.067 709.65 875.334 676.688 904.134 632.138C938.934 578.25 955.867 508.5 954.534 441C953.334 381.037 941.467 321.637 938.267 260.775C932.8 157.275 954.134 47.5875 1003.6 -44.6625C1031.6 -96.75 1068.4 -142.088 1112.4 -181.125C1192.27 -252 1296.53 -300.825 1412.93 -333.338C1477.73 -351.45 1545.6 -362.25 1613.73 -365.288" stroke="#2B3640" stroke-miterlimit="10"/>
<path d="M-1026.93 1090.24C-930.533 1083.49 -782.933 1074.26 -645.2 1074.6C-574.4 1074.82 -506.933 1075.61 -444.8 1069.31C-381.2 1063.01 -325.867 1050.64 -267.067 1030.5C-248.267 1024.09 -229.867 1016.77 -211.6 1008.11C-141.467 975.037 -74.2667 944.1 11.0667 918.563C97.3333 892.8 170.133 860.85 236.267 835.088C252 829.013 267.733 823.95 282.933 819.338C326.533 806.288 368 798.188 422.4 794.025C455.067 791.55 490 787.837 527.6 784.35C625.733 775.237 697.2 773.325 761.2 747.675C769.867 744.187 778.267 740.138 786.4 735.75C826.8 713.7 863.733 679.05 890.267 633.938C922.133 579.375 937.6 510.413 937.2 443.7C936.934 383.963 927.6 324.338 926.667 263.475C925.067 159.975 949.2 50.85 1000.27 -40.1625C1029.33 -91.9125 1067.07 -136.463 1111.73 -174.713C1192.67 -244.125 1297.07 -291.488 1413.6 -324C1478.27 -342.113 1545.87 -353.025 1613.87 -356.513" stroke="#2B3640" stroke-miterlimit="10"/>
<path d="M-1017.47 1105.88C-919.867 1107.68 -773.2 1102.39 -636.533 1100.81C-566.133 1100.03 -498.933 1098.34 -437.467 1089.11C-374.533 1079.66 -320.533 1063.69 -263.067 1041.08C-244.8 1033.88 -226.8 1025.77 -209.067 1016.55C-140.933 981.112 -75.8668 947.7 8.93322 921.375C93.5999 895.163 167.867 865.575 235.2 844.313C251.467 839.25 267.467 835.313 283.067 831.938C327.6 822.263 369.867 817.987 424.133 815.737C457.067 814.387 491.6 811.125 528.533 807.188C625.333 796.95 696.4 787.387 757.066 756.787C765.333 752.625 773.2 747.9 780.8 742.95C818.667 718.088 852.4 681.863 876.533 636.188C905.6 580.95 919.467 512.775 920.133 446.737C920.667 387.337 914.133 327.488 915.467 266.513C917.733 162.9 944.533 54.45 997.333 -35.325C1027.47 -86.7375 1066 -130.5 1111.33 -167.963C1193.2 -235.913 1297.87 -281.925 1414.67 -314.325C1479.33 -332.325 1546.53 -343.463 1614.4 -347.513" stroke="#2B3640" stroke-miterlimit="10"/>
<path d="M-1008 1121.51C-909.2 1131.75 -763.467 1130.63 -627.867 1127.03C-557.733 1125.23 -490.8 1121.06 -430 1108.8C-367.733 1096.31 -315.2 1076.74 -258.933 1051.54C-241.067 1043.55 -223.6 1034.66 -206.4 1024.88C-140.133 987.075 -77.4667 951.075 6.79997 924.188C90 897.525 165.467 870.412 234.267 853.425C250.933 849.375 267.333 846.563 283.333 844.313C328.8 837.9 371.733 836.212 425.867 837.112C458.933 837.675 493.333 834.075 529.467 829.688C624.8 818.213 695.6 801.113 752.933 765.563C760.8 760.725 768.133 755.437 775.333 749.925C810.667 722.25 841.2 684.338 862.933 638.213C889.067 582.3 901.467 514.912 903.067 449.55C904.533 390.487 900.533 330.413 904.133 269.213C910.267 165.6 939.867 57.7125 994.4 -30.9375C1025.73 -81.9 1065.07 -124.988 1110.93 -161.775C1193.87 -228.375 1298.8 -272.925 1415.6 -305.325C1480.13 -323.213 1547.2 -334.463 1614.8 -339.075" stroke="#2B3640" stroke-miterlimit="10"/>
<path d="M-998.667 1137.04C-898.667 1155.82 -754 1158.41 -619.2 1153.12C-549.467 1150.2 -482.8 1143.79 -422.667 1128.37C-361.2 1112.74 -309.867 1089.68 -255.067 1061.78C-237.6 1052.89 -220.667 1043.44 -204 1032.97C-139.733 992.925 -79.2 954.337 4.53332 926.662C86.1333 899.662 162.933 874.8 233.2 862.2C250.267 859.162 267.067 857.362 283.467 856.35C329.733 853.312 373.467 856.687 427.467 858.262C460.8 859.275 494.8 856.8 530.133 851.963C624 839.363 694.533 814.612 748.667 774.225C756 768.712 763.067 762.75 769.6 756.675C802.4 726.188 829.733 686.7 849.067 640.013C872.4 583.425 883.067 516.825 885.733 452.25C888.133 393.525 886.533 333.113 892.667 271.913C902.4 168.3 935.067 60.975 991.2 -26.4375C1023.6 -77.0625 1063.87 -119.362 1110.27 -155.362C1194.27 -220.5 1299.33 -263.7 1416.4 -295.987C1480.8 -313.762 1547.6 -325.237 1614.93 -330.412" stroke="#2B3640" stroke-miterlimit="10"/>
<path d="M-989.2 1152.68C-888 1180.01 -744.267 1186.65 -610.533 1179.45C-541.067 1175.51 -474.8 1166.62 -415.333 1148.29C-354.533 1129.61 -304.667 1102.84 -251.067 1072.46C-234.133 1062.79 -217.733 1052.55 -201.467 1041.53C-139.067 999.113 -80.8001 958.05 2.39994 929.588C82.5333 902.138 160.533 879.863 232.267 871.425C249.733 869.4 266.933 868.95 283.733 868.838C330.933 868.388 375.333 876.263 429.2 879.863C462.667 882 496.533 879.863 531.067 874.688C623.467 860.85 693.6 828.45 744.533 783.225C751.467 777.037 758 770.512 764 763.875C794.267 730.575 818.4 689.4 835.333 642.262C855.733 585 864.933 519.187 868.667 455.287C872 396.787 873.067 336.262 881.333 274.95C895.067 171.337 930.4 64.575 988.133 -21.7125C1021.73 -71.8875 1062.67 -113.513 1109.73 -148.725C1194.67 -212.4 1300 -254.25 1417.2 -286.425C1481.47 -304.088 1548 -315.788 1615.2 -321.525" stroke="#2B3640" stroke-miterlimit="10"/>
<path d="M-979.734 1168.31C-877.334 1204.09 -734.533 1214.89 -601.867 1205.66C-532.8 1200.71 -466.667 1189.35 -407.867 1167.97C-347.733 1146.15 -299.067 1116 -246.933 1082.93C-230.4 1072.46 -214.533 1061.44 -198.933 1049.85C-138.533 1005.07 -82.4 961.537 0.133296 932.287C78.6666 904.5 158 884.588 231.2 880.425C249.067 879.413 266.667 879.862 283.867 881.1C332 884.7 377.067 895.725 430.8 901.125C464.4 904.5 498.133 902.7 531.867 897.075C622.8 882 692.533 842.062 740.267 791.887C746.8 785.025 752.8 777.825 758.4 770.625C786 734.512 806.933 691.762 821.6 643.95C839.2 585.9 846.8 520.987 851.467 457.762C855.733 399.6 859.333 338.85 870 277.425C887.6 173.812 925.733 67.6125 985.067 -17.4375C1019.73 -67.1625 1061.6 -108.225 1109.2 -142.65C1195.2 -204.975 1300.67 -245.363 1418.13 -277.425C1482.27 -294.975 1548.67 -306.788 1615.6 -313.088" stroke="#2B3640" stroke-miterlimit="10"/>
<path d="M-970.4 1183.95C-866.8 1228.27 -724.933 1243.01 -593.2 1231.87C-524.4 1225.91 -458.667 1212.07 -400.533 1187.66C-341.2 1162.8 -293.867 1128.94 -242.933 1093.39C-226.8 1082.14 -211.467 1070.32 -196.4 1058.17C-138.133 1010.92 -84 965.137 -1.99997 935.1C75.0667 906.862 155.6 888.638 230.133 889.65C248.533 889.875 266.533 891.113 284.133 893.588C333.2 900.45 378.933 915.412 432.667 922.725C466.4 927.337 499.867 925.762 532.933 919.8C622.4 903.6 691.867 856.013 736.267 801C742.4 793.463 747.867 785.7 752.933 777.938C778 739.013 795.733 694.688 808 646.313C822.667 587.588 828.933 523.463 834.533 461.025C839.734 403.2 846 342.113 858.933 280.688C880.4 176.963 921.467 71.4375 982.267 -12.375C1018.13 -61.7625 1060.8 -102.037 1108.93 -135.675C1196 -196.537 1301.73 -235.575 1419.2 -267.637C1483.2 -285.075 1549.33 -297.112 1616.13 -303.975" stroke="#2B3640" stroke-miterlimit="10"/>
<path d="M-960.933 1199.59C-856 1252.35 -715.2 1271.25 -584.533 1258.09C-516.133 1251.11 -450.533 1234.91 -393.067 1207.46C-334.4 1179.45 -288.4 1142.1 -238.933 1103.96C-223.2 1091.92 -208.4 1079.44 -193.867 1066.61C-137.467 1017.11 -85.6 968.737 -4.26665 937.912C71.3333 909.337 153.067 894.375 229.067 898.762C247.867 899.887 266.267 902.362 284.267 905.962C334.4 916.087 380.533 934.987 434.267 944.212C468.133 950.062 501.467 948.825 533.6 942.412C621.6 924.975 690.667 869.85 731.867 809.887C737.6 801.675 742.667 793.237 747.2 784.912C769.733 743.175 784.267 697.162 794 648.337C805.867 588.937 810.533 525.6 817.067 463.837C823.333 406.35 832 345.037 847.2 283.387C872.534 179.662 916.533 74.8124 978.8 -7.98755C1015.87 -56.925 1059.2 -96.525 1108.13 -129.375C1196.27 -188.888 1302.13 -226.35 1419.87 -258.413C1483.73 -275.85 1549.73 -288 1616.13 -295.425" stroke="#2B3640" stroke-miterlimit="10"/>
<path d="M-951.467 1215.11C-845.333 1276.43 -705.6 1299.38 -575.867 1284.3C-507.733 1276.31 -442.533 1257.64 -385.733 1227.15C-327.733 1195.99 -283.067 1155.15 -234.933 1114.31C-219.733 1101.49 -205.333 1088.21 -191.333 1074.94C-136.933 1023.08 -87.2001 972.338 -6.40012 940.613C67.7332 911.7 150.533 899.213 228.133 907.763C247.333 909.9 266.133 913.387 284.533 918.225C335.6 931.612 382.4 954.45 436 965.588C470.133 972.675 503.067 971.662 534.533 964.912C620.933 946.125 689.6 883.462 727.733 818.662C732.933 809.775 737.6 800.775 741.6 791.887C761.6 747.337 772.933 699.75 780.266 650.362C789.2 590.287 792.4 527.737 800 466.65C807.2 409.5 818.533 347.962 836 286.2C865.2 182.475 912 78.1875 976 -3.37502C1014.27 -51.8625 1058.4 -90.7875 1107.87 -122.963C1196.93 -181.013 1303.07 -217.125 1420.93 -249.075C1484.8 -266.4 1550.4 -278.775 1616.67 -286.65" stroke="#2B3640" stroke-miterlimit="10"/>
<path d="M-942 1230.75C-778.133 1337.29 -540.933 1344.04 -378.267 1246.84C-321.067 1212.64 -277.733 1168.09 -230.8 1124.77C-158.4 1057.84 -109.333 984.037 -8.53346 943.312C81.9999 906.75 190.4 900.112 284.667 930.6C336.667 947.362 384.133 974.025 437.6 986.962C579.733 1021.27 698 901.8 736 798.862C774.667 694.012 767.2 579.487 782.933 469.462C804.667 317.025 868.133 129.375 972.933 1.23746C1083.07 -133.538 1238.4 -190.125 1421.73 -239.738C1485.47 -256.95 1550.8 -269.438 1616.93 -277.988" stroke="#2B3640" stroke-miterlimit="10"/>
</g>
<mask id="mask1_5_103" style="mask-type:luminance" maskUnits="userSpaceOnUse" x="0" y="0" width="1600" height="900">
<path d="M1600 0H0V900H1600V0Z" fill="white"/>
</mask>
<g mask="url(#mask1_5_103)">
<path d="M-56.5334 849.6C-45.0667 795.15 20.4 762.638 83.3333 756.338C146.267 750.038 210.533 762.412 274.267 762.412C444.933 762.3 605.867 663.188 661.733 523.688C679.6 479.025 687.467 431.325 704.933 386.438C722.4 341.663 752 297.9 800.133 276.638C869.333 245.925 956 269.55 1025.87 303.862C1095.73 338.175 1161.07 383.625 1238.4 399.375C1340 420.075 1445.73 384.412 1523.47 327.15C1601.2 269.887 1656.13 192.825 1709.73 117" stroke="#FF4DC4" stroke-miterlimit="10"/>
<path d="M-60.4001 844.312C-47.7334 790.087 17.4666 757.687 80.5333 751.162C107.867 748.35 135.333 749.025 162.933 750.937C199.2 753.412 235.467 757.8 271.467 758.475C344.933 759.825 416.667 743.963 479.6 713.138C528.267 689.288 571.467 657.9 606 620.212C630.667 593.437 650.4 563.287 664.133 530.55C670.267 515.925 675.333 500.85 680 485.663C689.467 454.838 697.2 423.562 709.467 393.75C723.333 359.887 744.4 327.15 775.6 304.875C785.333 297.9 795.867 291.937 807.467 287.212C856 267.525 912.133 274.275 965.867 291.038C989.067 298.238 1011.87 307.35 1033.07 317.025C1056.8 327.937 1080 339.638 1103.07 350.888C1148.4 372.938 1193.33 393.3 1241.87 400.612C1273.47 405.45 1304.53 404.1 1335.47 398.362C1398 386.55 1459.6 355.05 1510.93 314.775C1524.93 303.75 1538.4 292.05 1551.47 280.013C1609.2 226.238 1657.47 164.138 1705.07 105.413" stroke="#F552C5" stroke-miterlimit="10"/>
<path d="M-64.1334 839.025C-50.2668 785.138 14.6666 752.737 77.8666 745.987C105.2 743.062 132.8 743.738 160.533 745.763C196.8 748.463 232.933 753.3 269.067 754.65C342.4 757.463 413.867 744.075 477.467 714.6C526.667 691.762 570.533 661.837 606.4 625.612C632 599.625 652.4 569.925 666.8 537.413C673.2 522.9 678.533 507.825 683.333 492.638C693.2 461.925 701.333 430.538 714.133 400.95C728.667 367.313 750.4 335.362 782.667 314.212C792.667 307.687 803.333 302.063 814.933 297.788C863.733 279.9 919.067 288.338 972.667 305.1C996 312.413 1018.93 321.075 1040.27 330.188C1064.27 340.312 1087.73 351.112 1110.67 360.9C1155.87 380.362 1199.47 397.575 1245.2 401.85C1274.8 404.663 1303.2 401.4 1331.6 393.975C1389.2 378.788 1447.73 344.362 1498.13 302.4C1512 290.812 1525.33 278.775 1538.4 266.4C1596.67 211.05 1648.53 149.4 1699.87 93.9375" stroke="#EB57C7" stroke-miterlimit="10"/>
<path d="M-68 833.625C-52.9333 780.075 11.5999 747.563 74.9333 740.7C102.267 737.775 130 738.337 157.733 740.475C194 743.287 230.133 748.575 266.133 750.6C339.333 754.762 410.667 744.075 474.933 715.838C524.533 694.013 569.333 665.663 606.4 630.788C633.067 605.7 654.133 576.45 669.067 544.163C675.733 529.763 681.2 514.8 686.4 499.612C696.667 468.9 705.333 437.512 718.533 408.15C733.6 374.737 756.133 343.575 789.333 323.437C799.6 317.25 810.267 312.075 822 308.25C870.933 292.162 925.6 302.287 979.2 319.05C1002.53 326.362 1025.6 334.8 1047.33 343.237C1071.6 352.687 1095.2 362.25 1118.13 370.913C1163.2 387.788 1205.73 401.85 1248.53 402.975C1276.27 403.763 1301.73 398.587 1327.6 389.587C1380.27 371.25 1435.73 333.788 1485.2 289.913C1498.8 277.875 1512.13 265.275 1525.33 252.562C1584.13 195.525 1639.73 134.438 1694.67 82.2375" stroke="#E15DC8" stroke-miterlimit="10"/>
<path d="M-71.8667 828.338C-55.6 775.013 8.66665 742.613 72.1333 735.525C99.6 732.488 127.333 733.05 155.067 735.412C191.333 738.45 227.467 744.075 263.333 746.888C336.4 752.4 407.6 744.3 472.4 717.412C522.533 696.6 568.133 669.825 606.4 636.3C634.133 612.112 655.867 583.312 671.333 551.25C678.267 536.85 684 522 689.333 506.812C700 476.212 709.067 444.713 722.933 415.575C738.667 382.5 761.733 351.9 796.133 333C806.533 327.262 817.467 322.425 829.067 319.05C878.267 304.762 932.133 316.575 985.6 333.45C1008.93 340.875 1032.27 348.862 1054.13 356.737C1078.53 365.512 1102.53 374.063 1125.33 381.263C1170.27 395.438 1211.73 406.462 1251.6 404.55C1277.47 403.312 1300 396.225 1323.47 385.538C1371.2 363.825 1423.47 323.55 1472.27 277.875C1485.6 265.275 1498.93 252.338 1512.27 239.288C1571.6 180.675 1630.8 120.15 1689.47 71.1" stroke="#D762CA" stroke-miterlimit="10"/>
<path d="M-75.6 823.05C-58.2667 770.063 5.86662 737.662 69.4666 730.35C96.9333 727.2 124.8 727.763 152.533 730.238C188.8 733.388 224.933 739.575 260.667 742.95C333.6 749.925 404.667 744.3 470.133 718.763C520.8 698.963 567.067 673.65 606.667 641.587C635.467 618.187 657.733 589.95 673.867 558C681.067 543.712 687.067 528.862 692.533 513.675C703.733 483.075 713.2 451.575 727.467 422.663C743.733 389.813 767.6 360 803.067 342.112C813.733 336.712 824.667 332.325 836.4 329.4C885.733 316.912 938.933 330.3 992.4 347.288C1015.87 354.713 1039.33 362.475 1061.47 369.675C1086.13 377.775 1110.27 385.2 1133.07 391.163C1177.87 402.75 1218.27 410.625 1255.2 405.562C1279.33 402.3 1298.8 393.3 1319.87 380.925C1362.67 355.95 1411.87 312.638 1459.73 265.163C1472.93 252 1486.13 238.613 1499.47 225.225C1559.33 164.925 1622.13 104.963 1684.67 59.175" stroke="#CD67CB" stroke-miterlimit="10"/>
<path d="M-79.4667 817.65C-60.9334 765 2.93332 732.487 66.6667 725.175C94.1333 722.025 122.133 722.475 149.867 725.062C186.267 728.438 222.267 734.963 258 739.013C330.8 747.338 401.733 744.412 467.733 720.112C518.933 701.325 566 677.587 606.8 646.875C636.667 624.375 659.6 596.587 676.267 564.862C683.6 550.687 689.867 535.95 695.733 520.763C707.333 490.163 717.2 458.663 732 429.975C748.8 397.35 773.333 368.213 810 351.562C820.933 346.612 832 342.562 843.733 340.087C893.333 329.4 945.733 344.475 999.2 361.462C1022.67 368.887 1046.4 376.313 1068.67 382.95C1093.6 390.375 1117.87 396.675 1140.8 401.288C1185.33 410.288 1225.07 415.013 1258.8 406.913C1281.2 401.513 1297.73 390.6 1316.27 376.763C1354.13 348.525 1400.27 302.288 1447.33 253.013C1460.27 239.4 1473.47 225.562 1486.93 211.837C1547.33 149.962 1613.87 90.45 1680 47.8125" stroke="#C36CCD" stroke-miterlimit="10"/>
<path d="M-83.2001 812.363C-63.4667 760.05 0.133247 727.538 63.8666 720C91.4666 716.738 119.467 717.188 147.333 719.888C183.733 723.375 219.6 730.35 255.333 735.188C328 744.975 398.8 744.525 465.333 721.575C517.067 703.8 564.933 681.637 606.8 652.275C637.733 630.675 661.333 603.337 678.533 571.837C686.133 557.775 692.667 543.038 698.667 527.85C710.667 497.363 720.933 465.75 736.267 437.288C753.733 404.888 778.8 376.537 816.667 360.9C827.733 356.287 838.933 352.687 850.8 350.55C900.533 341.662 952.267 358.425 1005.6 375.413C1029.2 382.95 1053.07 390.037 1075.47 396C1100.67 402.75 1125.2 407.925 1148 411.3C1192.4 417.712 1231.2 419.062 1261.73 408.15C1282.53 400.725 1295.87 387.9 1312 372.375C1344.93 340.762 1387.87 291.712 1434.13 240.525C1446.93 226.35 1460 212.062 1473.6 198C1534.53 134.437 1604.67 75.6 1674.53 36.1125" stroke="#B972CE" stroke-miterlimit="10"/>
<path d="M-87.0668 807.075C-66.1334 754.988 -2.80005 722.588 61.0666 714.825C88.6666 711.45 116.8 711.9 144.667 714.713C181.067 718.425 216.933 725.737 252.533 731.25C325.067 742.387 395.733 744.525 462.933 722.925C515.2 706.162 563.867 685.575 606.933 657.562C638.933 636.75 663.067 609.975 680.933 578.587C688.8 564.637 695.467 549.9 701.733 534.712C714.133 504.225 724.933 472.612 740.667 444.375C758.667 412.2 784.533 384.525 823.333 370.125C834.667 365.962 846 362.7 857.867 361.013C907.867 353.925 958.667 372.375 1012.13 389.362C1035.73 396.9 1059.73 403.65 1082.53 409.05C1108 415.125 1132.67 419.288 1155.47 421.2C1199.73 425.025 1237.73 423 1265.07 409.163C1284.27 399.488 1294.4 384.862 1308.13 367.875C1336.13 332.887 1376 281.025 1421.47 228.038C1434 213.413 1447.07 198.675 1460.67 184.163C1522.13 119.025 1595.87 60.6375 1669.47 24.4125" stroke="#AF77CF" stroke-miterlimit="10"/>
<path d="M-90.8 801.675C-68.6667 749.925 -5.60001 717.412 58.4 709.537C86 706.162 114.133 706.5 142.133 709.425C178.533 713.25 214.4 721.125 249.867 727.312C322.267 739.912 392.667 744.638 460.533 724.275C513.333 708.525 562.8 689.513 607.067 662.85C640.133 642.938 664.933 616.613 683.333 585.45C691.467 571.613 698.4 556.987 704.933 541.8C717.867 511.425 728.933 479.7 745.333 451.687C764 419.737 790.4 392.738 830.4 379.575C841.867 375.75 853.333 373.05 865.333 371.7C915.467 366.413 965.6 386.55 1019.07 403.538C1042.8 411.075 1066.93 417.6 1089.87 422.325C1115.6 427.613 1140.4 430.762 1163.2 431.437C1207.2 432.675 1244.53 427.05 1268.67 410.625C1286.27 398.7 1293.2 382.387 1304.53 363.712C1327.6 325.462 1364.4 270.563 1408.93 215.888C1421.2 200.7 1434.27 185.512 1448 170.775C1510 104.062 1587.33 46.125 1664.67 13.1625" stroke="#A57CD1" stroke-miterlimit="10"/>
<path d="M-94.6667 796.388C-71.4667 744.975 -8.53341 712.462 55.5999 704.362C83.1999 700.875 111.467 701.212 139.467 704.362C175.867 708.412 211.733 716.625 247.2 723.487C319.467 737.437 389.733 744.75 458.267 725.737C511.6 711 562 693.562 607.333 668.25C641.467 649.237 666.933 623.362 685.867 592.425C694.267 578.7 701.467 564.075 708.133 548.888C721.467 518.513 733.067 486.787 749.867 459C769.067 427.387 796.133 400.95 837.333 388.913C849.067 385.538 860.667 383.175 872.667 382.275C923.067 378.787 972.4 400.5 1025.73 417.6C1049.47 425.25 1073.87 431.325 1096.93 435.487C1122.8 440.1 1148 442.125 1170.67 441.45C1214.53 440.1 1251.07 430.762 1272 411.75C1287.87 397.35 1291.87 379.462 1300.67 359.212C1318.8 317.587 1352.53 259.875 1396.13 203.288C1408.27 187.538 1421.2 172.013 1435.07 156.825C1497.6 88.425 1578.67 31.1625 1659.73 1.35001" stroke="#9B81D2" stroke-miterlimit="10"/>
<path d="M-98.5334 791.1C-74.1334 739.912 -11.4667 707.513 52.6667 699.188C80.4 695.588 108.667 695.925 136.8 699.188C173.2 703.35 208.933 712.012 244.4 719.55C316.533 734.962 386.667 744.75 455.733 727.088C509.6 713.363 560.8 697.5 607.333 673.537C642.533 655.425 668.667 630 688.133 599.175C696.8 585.562 704.133 570.937 711.067 555.75C724.8 525.375 736.8 493.762 754.133 466.087C773.867 434.7 801.6 408.938 844 398.138C855.867 395.1 867.733 393.187 879.6 392.737C930.133 391.05 978.8 414.45 1032.13 431.55C1056 439.2 1080.53 445.05 1103.87 448.537C1130 452.475 1155.33 453.487 1178 451.462C1221.6 447.525 1257.2 434.362 1275.2 412.987C1289.33 396.225 1290.27 376.762 1296.67 354.937C1309.87 309.937 1340.4 249.412 1383.33 191.025C1395.2 174.825 1408.13 158.738 1422 143.325C1485.07 73.35 1569.73 16.5375 1654.53 -10.0125" stroke="#9187D4" stroke-miterlimit="10"/>
<path d="M-102.267 785.7C-76.6667 734.85 -14.2667 702.338 50 693.9C77.7333 690.3 106.133 690.525 134.267 693.9C170.8 698.288 206.4 707.4 241.733 715.612C313.733 732.375 383.733 744.75 453.467 728.437C507.867 715.725 559.867 701.438 607.6 678.825C643.867 661.613 670.533 636.638 690.667 606.038C699.467 592.538 707.2 578.025 714.267 562.837C728.4 532.575 740.8 500.85 758.667 473.513C779.067 442.35 807.333 417.15 850.933 407.587C863.067 404.887 874.933 403.425 886.933 403.425C937.733 403.537 985.6 428.625 1038.93 445.837C1062.8 453.487 1087.47 459 1111.07 461.925C1137.47 465.187 1162.93 465.075 1185.6 461.7C1229.07 455.288 1263.47 438.187 1278.53 414.337C1290.8 395.1 1288.8 374.063 1292.67 350.663C1300.8 302.288 1328.4 238.837 1370.4 178.65C1382 161.887 1394.8 145.463 1408.93 129.6C1472.53 57.9375 1560.8 1.68751 1649.33 -21.7125" stroke="#878CD5" stroke-miterlimit="10"/>
<path d="M-106.133 780.412C-79.3334 729.9 -17.2001 697.387 47.1999 688.837C74.9332 685.125 103.467 685.35 131.6 688.837C168.133 693.337 203.733 702.9 238.933 711.787C310.8 729.9 380.667 744.975 450.933 729.9C505.733 718.2 558.667 705.488 607.6 684.225C645.067 667.913 672.267 643.388 692.933 613.013C702 599.625 710 585.112 717.333 569.925C732 539.662 744.8 507.938 763.2 480.825C784.133 449.888 813.067 425.363 857.733 417.038C870 414.788 882.133 413.662 894.133 414.112C945.067 416.025 992.267 442.8 1045.47 460.013C1069.33 467.775 1094.27 472.838 1118 475.2C1144.67 477.788 1170.27 476.662 1192.93 471.937C1236.13 462.937 1269.33 442.012 1281.73 415.8C1292 394.087 1287.2 371.587 1288.67 346.5C1291.87 294.862 1316.4 228.487 1357.6 166.5C1369.07 149.175 1381.73 132.3 1395.87 116.212C1460 42.975 1551.87 -12.7125 1644.13 -32.9625" stroke="#7D91D7" stroke-miterlimit="10"/>
<path d="M-109.867 775.125C-81.8667 724.838 -20 692.438 44.5333 683.663C72.4 679.838 100.933 680.063 129.067 683.663C165.6 688.388 201.2 698.288 236.4 707.963C308.133 727.538 377.867 745.087 448.8 731.362C504.133 720.675 558 709.65 608 689.625C646.533 674.213 674.4 650.138 695.6 619.875C704.933 606.488 713.067 592.087 720.667 576.9C735.733 546.75 748.933 514.912 767.867 488.025C789.467 457.312 818.933 433.35 864.8 426.263C877.333 424.35 889.467 423.675 901.6 424.575C952.8 428.175 999.2 456.75 1052.4 473.962C1076.4 481.725 1101.47 486.563 1125.47 488.25C1152.4 490.163 1178.27 487.912 1200.8 481.837C1243.87 470.25 1275.73 445.612 1285.47 416.925C1293.6 392.737 1286.13 368.662 1285.2 342.112C1283.33 287.1 1304.93 217.913 1345.2 154.013C1356.4 136.238 1369.07 118.913 1383.33 102.375C1448 27.45 1543.6 -27.675 1639.6 -44.6625" stroke="#7396D8" stroke-miterlimit="10"/>
<path d="M-113.733 769.725C-84.6667 719.775 -22.9334 687.262 41.5999 678.375C69.4666 674.55 98.1333 674.662 126.4 678.487C162.933 683.325 198.533 693.788 233.6 704.025C305.2 724.95 374.667 745.088 446.267 732.713C502.133 723.038 556.8 713.587 608 694.912C647.6 680.4 676 656.775 697.867 626.737C707.467 613.462 715.867 599.175 723.6 583.987C739.067 553.837 752.8 522 772.133 495.337C794.267 464.85 824.267 441.562 871.467 435.712C884.267 434.137 896.533 433.913 908.667 435.263C960 440.663 1005.73 470.813 1058.8 488.138C1082.8 496.013 1108.13 500.4 1132.27 501.525C1159.33 502.65 1185.47 499.5 1208 492.075C1250.93 478.013 1281.33 449.662 1288.53 418.275C1294.53 391.725 1284.4 366.075 1281.07 337.837C1274.27 279.45 1292.67 207.45 1332.27 141.75C1343.2 123.412 1355.87 105.637 1370.27 88.875C1435.47 12.375 1534.67 -42.3 1634.4 -56.025" stroke="#699CD9" stroke-miterlimit="10"/>
<path d="M-117.467 764.438C-87.2001 714.825 -25.7334 682.313 38.9333 673.2C66.7999 669.263 95.6 669.375 123.867 673.312C160.4 678.375 195.867 689.175 230.933 700.088C302.4 722.475 371.733 745.2 443.867 734.062C500.267 725.4 555.867 717.525 608.133 700.2C648.8 686.7 677.867 663.413 700.267 633.6C710.133 620.438 718.667 606.15 726.8 590.962C742.667 560.925 756.8 528.975 776.667 502.538C799.333 472.388 830 449.55 878.4 445.05C891.333 443.812 903.733 444.037 916 445.837C967.6 453.037 1012.53 484.875 1065.6 502.2C1089.73 510.075 1115.2 514.237 1139.6 514.688C1166.93 515.138 1193.2 510.862 1215.73 502.087C1258.4 485.437 1287.47 453.375 1292.13 419.513C1296 390.6 1283.07 363.375 1277.47 333.562C1265.47 271.913 1281.07 196.875 1319.73 129.487C1330.53 110.7 1343.07 92.475 1357.47 75.2625C1423.2 -2.92501 1526 -57.0375 1629.47 -67.5" stroke="#5FA1DB" stroke-miterlimit="10"/>
<path d="M-121.333 759.15C-89.8667 709.875 -28.6667 677.362 36.1333 668.025C64.1333 663.975 92.9332 664.088 121.2 668.138C157.867 673.425 193.2 684.563 228.267 696.263C299.6 720 368.8 745.313 441.6 735.525C498.533 727.875 554.933 721.687 608.4 705.6C650.267 693 679.867 670.163 702.8 640.575C712.933 627.525 721.733 613.237 730 598.05C746.267 568.012 760.8 536.063 781.2 509.85C804.533 479.925 835.867 457.65 885.2 454.388C898.4 453.488 910.933 454.162 923.2 456.3C974.933 465.3 1019.2 498.825 1072.27 516.15C1096.4 524.025 1122 527.85 1146.67 527.737C1174.27 527.512 1200.8 522.225 1223.2 512.1C1265.73 492.863 1293.33 457.313 1295.33 420.638C1297.07 389.475 1281.47 360.45 1273.47 329.062C1256.53 264.15 1269.07 186.188 1306.8 116.888C1317.33 97.5375 1329.87 78.8625 1344.4 61.425C1410.67 -18.3375 1517.07 -71.8875 1624.27 -79.3125" stroke="#55A6DC" stroke-miterlimit="10"/>
<path d="M-125.2 753.75C-92.5334 704.7 -31.7334 672.188 33.3333 662.738C61.3333 658.688 90.1333 658.687 118.533 662.85C155.2 668.25 190.533 679.95 225.467 692.213C296.667 717.413 365.733 745.2 439.067 736.763C496.533 730.125 553.733 725.625 608.4 710.775C651.333 699.075 681.467 676.687 705.067 647.212C715.467 634.275 724.533 620.1 732.933 604.912C749.733 574.875 764.667 542.925 785.6 516.938C809.467 487.238 841.467 465.525 892 463.612C905.333 463.162 918 464.288 930.4 466.763C982.4 477.563 1025.73 512.775 1078.8 530.1C1103.07 538.087 1128.8 541.575 1153.6 540.787C1181.47 539.887 1208.13 533.475 1230.53 522C1272.93 500.288 1299.07 461.025 1298.53 421.763C1298.13 388.35 1280 357.638 1269.47 324.563C1247.6 256.275 1256.93 175.5 1294 104.4C1304.27 84.4875 1316.8 65.475 1331.47 47.5875C1398.27 -33.8625 1508.4 -86.85 1619.2 -91.0125" stroke="#4BABDE" stroke-miterlimit="10"/>
<path d="M-128.933 748.463C-95.2 699.75 -34.5334 667.238 30.5333 657.562C58.5333 653.4 87.4667 653.4 116 657.675C152.667 663.3 188 675.338 222.8 688.388C293.867 714.938 362.8 745.425 436.8 738.225C494.8 732.6 552.933 729.675 608.533 716.175C652.533 705.487 683.333 683.438 707.6 654.188C718.133 641.363 727.467 627.188 736.267 612C753.467 582.075 768.8 550.012 790.267 524.25C814.8 494.775 847.333 473.625 899.067 472.95C912.667 472.838 925.467 474.412 937.733 477.337C989.867 489.937 1032.53 526.837 1085.6 544.275C1109.87 552.262 1135.87 555.413 1160.93 554.062C1189.07 552.488 1216 545.062 1238.27 532.237C1280.53 508.05 1305.2 465.187 1302.13 423.112C1299.47 387.45 1278.8 355.05 1265.87 320.4C1239.07 248.737 1245.33 165.15 1281.47 92.1375C1291.6 71.775 1304 52.2 1318.67 34.0875C1386 -48.9375 1499.73 -101.475 1614.4 -102.375" stroke="#41B1DF" stroke-miterlimit="10"/>
<path d="M-132.8 743.175C-97.8667 694.8 -37.4667 662.288 27.7333 652.5C55.8667 648.225 84.8 648.225 113.333 652.613C150 658.35 185.333 670.838 220 684.563C290.933 712.575 359.733 745.538 434.267 739.688C492.8 735.075 551.733 733.95 608.533 721.575C653.6 711.9 685.067 690.188 709.867 661.163C720.667 648.45 730.267 634.275 739.2 619.088C756.8 589.163 772.667 557.1 794.533 531.563C819.6 502.313 852.8 481.613 905.733 482.4C919.467 482.625 932.4 484.65 944.8 488.025C997.2 502.425 1039.07 540.9 1092.13 558.45C1116.53 566.438 1142.67 569.363 1167.87 567.338C1196.13 565.088 1223.33 556.538 1245.6 542.363C1287.73 515.588 1310.93 469.237 1305.33 424.462C1300.53 386.55 1277.2 352.35 1261.87 316.125C1230 241.2 1233.33 154.575 1268.67 79.875C1278.53 58.95 1290.93 39.0375 1305.73 20.475C1373.6 -64.2375 1490.93 -116.1 1609.33 -113.85" stroke="#37B6E1" stroke-miterlimit="10"/>
<path d="M-136.533 737.775C-84.8 668.925 16.1333 632.025 110.8 647.325C222.4 665.325 319.867 747.787 432 740.925C491.067 737.325 550.8 737.775 608.8 726.75C675.2 714.15 712.267 675.788 742.4 625.95C781.067 561.938 811.333 487.688 912.667 491.625C985.867 494.438 1033.33 550.688 1098.8 572.4C1150.53 589.5 1211.2 581.625 1253.2 552.263C1295.2 522.9 1316.93 473.175 1308.8 425.588C1301.87 385.425 1275.87 349.538 1258.13 311.625C1211.07 211.5 1224.53 92.925 1292.93 6.63753C1361.33 -79.65 1482.4 -131.062 1604.4 -125.55" stroke="#2DBBE2" stroke-miterlimit="10"/>
<path d="M-130.667 747.675C-78.1333 684.225 22.1333 649.912 116.133 663.975C163.2 670.95 207.867 688.725 252 705.825C297.2 723.487 341.6 740.588 388 745.65C402.933 747.225 418.133 747.675 433.467 746.325C491.2 741.262 549.6 740.025 607.333 728.55C672.8 715.612 710.533 678.825 741.733 631.8C748.933 621 755.867 609.975 762.933 599.062C783.733 567 805.867 536.625 840.8 519.862C860.4 510.412 883.867 505.125 913.2 506.025C985.467 508.05 1032.8 559.575 1096.13 578.137C1104.53 580.612 1113.2 582.412 1121.87 583.537C1165.2 589.162 1210.93 578.587 1244.4 553.725C1284.53 523.912 1305.33 474.637 1297.73 427.5C1291.33 387.562 1267.07 351.45 1250.67 313.538C1222.4 248.175 1219.2 175.275 1239.6 109.125C1250.53 73.8 1268.27 40.3875 1292.27 10.9125C1336.27 -42.8625 1400.93 -82.6875 1473.6 -103.725C1515.33 -115.763 1559.73 -121.5 1604.27 -119.925" stroke="#33B4E3" stroke-miterlimit="10"/>
<path d="M-124.667 757.575C-71.4667 699.525 28.2667 667.8 121.733 680.625C168.667 687.037 213.067 703.125 256.667 718.425C301.333 734.062 344.933 749.025 390.533 752.4C405.2 753.525 420 753.412 435.067 751.725C491.6 745.2 548.533 742.388 605.867 730.463C670.267 717.3 708.8 681.862 740.933 637.65C748.4 627.412 755.6 617.175 762.933 606.937C784.4 577.012 806.8 549 841.733 533.475C861.467 524.812 884.8 519.75 913.6 520.312C984.933 521.662 1032.13 568.35 1093.33 583.763C1101.47 585.788 1109.73 587.137 1118.13 587.925C1159.87 591.75 1203.6 580.162 1235.47 554.962C1273.73 524.7 1293.6 475.987 1286.67 429.3C1280.93 389.587 1258.13 353.362 1243.33 315.337C1217.47 249.975 1216 177.412 1237.47 112.05C1249.07 76.95 1267.33 43.9875 1291.87 14.9625C1336.53 -37.9125 1401.33 -76.8375 1474.13 -97.875C1515.87 -109.913 1560 -115.763 1604.4 -114.413" stroke="#38ADE5" stroke-miterlimit="10"/>
<path d="M-118.667 767.475C-64.6667 714.825 34.4 685.575 127.2 697.162C173.867 702.9 218.133 717.525 261.333 730.8C305.6 744.525 348.4 757.125 393.067 758.925C407.467 759.487 422 758.925 436.667 756.9C492 748.913 547.467 744.3 604.533 732.037C668 718.425 707.2 684.675 740.4 643.275C748 633.712 755.6 624.15 763.067 614.7C785.2 587.025 807.867 561.15 842.8 546.975C862.533 538.988 885.867 534.15 914.133 534.487C984.533 535.05 1031.47 577.125 1090.8 589.275C1098.67 590.85 1106.67 591.862 1114.8 592.312C1154.93 594.337 1196.67 581.738 1227.07 556.2C1263.6 525.6 1282.4 477.338 1276.13 431.1C1270.93 391.5 1249.87 355.163 1236.4 317.138C1213.07 251.775 1213.07 179.55 1235.73 114.975C1248 80.1 1266.8 47.5875 1291.73 19.125C1337.07 -32.85 1402 -70.875 1474.8 -91.9125C1516.4 -103.838 1560.53 -109.8 1604.8 -108.9" stroke="#3EA6E6" stroke-miterlimit="10"/>
<path d="M-112.667 777.375C-57.8667 730.012 40.5333 703.462 132.8 713.812C179.333 718.875 223.333 731.925 266.133 743.4C310 755.1 351.867 765.45 395.733 765.675C409.867 765.787 424 764.775 438.4 762.3C492.533 752.962 546.533 746.662 603.333 733.95C665.733 720 705.733 687.825 739.867 649.125C747.733 640.237 755.6 631.35 763.333 622.575C786.133 597.037 809.067 573.412 844 560.587C863.867 553.275 887.067 549 914.8 548.887C984.267 548.662 1030.93 586.012 1088.27 595.012C1095.87 596.25 1103.6 596.812 1111.33 596.812C1149.87 597.037 1189.47 583.425 1218.4 557.55C1253.07 526.5 1270.8 478.8 1265.33 432.9C1260.67 393.525 1241.33 356.963 1229.33 318.938C1208.4 253.463 1210.13 181.688 1234 117.788C1246.93 83.1375 1266.4 51.1875 1291.6 23.0625C1337.6 -28.0125 1402.67 -65.25 1475.6 -86.0625C1517.2 -97.9875 1561.07 -104.062 1605.2 -103.387" stroke="#43A0E8" stroke-miterlimit="10"/>
<path d="M-106.8 787.162C-51.2 745.2 46.5333 721.237 138.133 730.237C184.4 734.737 228.4 746.212 270.667 755.662C314 765.45 355.067 773.55 398.133 772.088C412 771.638 425.867 770.175 439.867 767.362C492.8 756.562 545.333 748.575 601.733 735.412C663.2 721.125 703.867 690.413 739.067 654.638C747.2 646.313 755.333 638.213 763.333 630.225C786.667 606.825 810.133 585.563 845.067 573.975C865.067 567.338 888 563.175 915.333 562.95C983.867 562.275 1030.4 594.563 1085.6 600.413C1092.93 601.2 1100.4 601.312 1107.73 601.087C1144.53 599.625 1182.27 584.887 1209.6 558.675C1242.53 527.175 1259.2 479.925 1254.4 434.587C1250.27 395.437 1232.67 358.763 1222 320.625C1203.6 255.15 1206.93 183.713 1231.87 120.6C1245.47 86.175 1265.47 54.675 1291.07 27.1125C1337.73 -23.0625 1402.93 -59.4 1476 -80.2125C1517.47 -92.025 1561.2 -98.2125 1605.2 -97.9875" stroke="#4999E9" stroke-miterlimit="10"/>
<path d="M-100.8 797.062C-44.4 760.5 52.6666 739.013 143.6 746.888C189.6 750.713 233.467 760.613 275.333 768.263C318.267 776.025 358.4 781.875 400.667 778.838C414.267 777.825 427.733 776.025 441.467 772.763C493.2 760.5 544.267 750.825 600.4 737.325C660.8 722.7 702.267 693.562 738.4 660.487C746.8 652.837 755.2 645.413 763.333 638.1C787.333 616.838 811.067 597.825 846 587.587C866 581.625 888.933 577.8 915.733 577.237C983.467 575.775 1029.73 603.338 1082.8 606.038C1089.87 606.375 1096.93 606.15 1104.13 605.475C1139.33 602.213 1175.07 586.463 1200.93 559.913C1232 527.963 1247.73 481.275 1243.6 436.388C1240 397.463 1224 360.562 1214.93 322.425C1198.93 256.95 1204.13 185.85 1230 123.525C1244.27 89.325 1264.8 58.275 1290.8 31.1625C1338 -18.1125 1403.33 -53.55 1476.53 -74.3625C1518 -86.175 1561.6 -92.475 1605.47 -92.5875" stroke="#4F92EA" stroke-miterlimit="10"/>
<path d="M-94.8 806.963C-37.7334 775.8 58.9333 756.9 149.2 763.537C195.067 766.687 238.667 775.125 280.133 780.75C322.667 786.6 362 790.087 403.333 785.475C416.667 784.012 429.867 781.65 443.2 778.05C493.733 764.437 543.467 752.963 599.067 739.013C658.533 724.163 700.667 696.375 737.867 666.225C746.533 659.138 755.2 652.5 763.6 645.975C788.267 626.963 812.4 610.2 847.2 601.2C867.333 596.025 890.133 592.425 916.4 591.525C983.2 589.387 1029.2 612.225 1080.27 611.663C1087.07 611.55 1093.87 610.988 1100.67 609.975C1134.27 604.913 1167.87 588.15 1192.27 561.263C1221.47 528.863 1236.27 482.737 1232.8 438.187C1229.73 399.375 1215.6 362.362 1207.73 324.112C1194.4 258.637 1201.07 187.875 1228.13 126.337C1243.07 92.3625 1264.13 61.875 1290.53 35.2125C1338.4 -13.1625 1403.87 -47.7 1477.2 -68.4C1518.53 -80.1 1562 -86.5125 1605.73 -86.9625" stroke="#548BEC" stroke-miterlimit="10"/>
<path d="M-88.8 816.862C-30.9334 791.1 65.0667 774.9 154.667 780.075C200.267 782.775 243.733 789.412 284.8 793.237C326.8 797.062 365.333 798.3 405.867 792.112C418.933 790.087 431.733 787.275 444.8 783.338C494 768.263 542.4 755.212 597.733 740.812C656.267 725.625 699.2 699.412 737.333 671.962C746.267 665.55 755.2 659.587 763.867 653.737C789.067 636.862 813.6 622.463 848.4 614.7C868.667 610.2 891.333 606.937 917.067 605.812C982.933 603 1028.8 621 1077.73 617.288C1084.27 616.838 1090.8 615.825 1097.2 614.475C1129.2 607.613 1160.8 589.837 1183.6 562.612C1211.07 529.762 1224.8 484.088 1221.87 440.1C1219.33 401.513 1206.93 364.387 1200.53 326.025C1189.6 260.55 1198 190.125 1226.13 129.375C1241.73 95.625 1263.47 65.5875 1290.13 39.4875C1338.67 -7.9875 1404.27 -41.625 1477.6 -62.325C1518.8 -74.025 1562.27 -80.4375 1605.73 -81.3375" stroke="#5A84ED" stroke-miterlimit="10"/>
<path d="M-82.9333 826.763C-24.2667 806.4 71.0666 792.787 160.133 796.725C205.6 798.75 248.8 803.925 289.467 805.725C331.067 807.637 368.667 806.625 408.4 798.75C421.067 796.275 433.733 793.013 446.4 788.625C494.4 772.088 541.333 757.35 596.267 742.612C653.733 727.087 697.467 702.45 736.533 677.812C745.733 672.075 754.933 666.787 763.867 661.612C789.733 646.875 814.667 634.725 849.333 628.312C869.733 624.487 892.133 621.45 917.467 620.1C982.4 616.5 1028.13 629.775 1074.93 622.913C1081.2 622.013 1087.47 620.55 1093.47 618.862C1123.87 610.2 1153.47 591.413 1174.67 563.85C1200.27 530.663 1213.07 485.438 1210.8 441.788C1208.93 403.425 1198 366.075 1193.2 327.712C1184.8 262.237 1194.8 192.15 1224.13 132.188C1240.4 98.6625 1262.67 69.075 1289.73 43.425C1338.93 -3.14999 1404.67 -35.8875 1478.13 -56.5875C1519.33 -68.175 1562.53 -74.8125 1606 -75.9375" stroke="#607DEE" stroke-miterlimit="10"/>
<path d="M-76.9333 836.662C-17.4667 821.587 77.1999 810.675 165.6 813.375C210.8 814.725 253.867 818.325 294.133 818.325C335.333 818.325 372 814.95 410.933 805.5C423.333 802.463 435.6 798.75 448 794.025C494.8 776.025 540.267 759.712 594.933 744.412C651.467 728.662 696 705.375 736 683.662C745.467 678.487 754.933 673.987 764 669.6C790.4 657 815.867 647.212 850.4 642.037C870.933 639 893.2 636.188 918 634.5C982 630.225 1027.6 638.55 1072.27 628.65C1078.27 627.3 1084.13 625.5 1090 623.475C1118.8 613.125 1146.27 593.213 1166.13 565.313C1190 531.675 1201.73 487.013 1200.13 443.813C1198.8 405.675 1189.6 368.212 1186.13 329.737C1180.13 264.262 1192 194.512 1222.27 135.337C1239.33 102.15 1262 72.9 1289.6 47.8125C1339.47 2.13751 1405.33 -29.7 1478.93 -50.4C1520 -61.9875 1563.07 -68.625 1606.4 -70.2" stroke="#6576F0" stroke-miterlimit="10"/>
<path d="M-70.9333 846.45C-10.6667 836.775 83.3333 828.337 171.2 829.8C216.267 830.587 259.067 832.613 298.8 830.588C339.467 828.563 375.333 822.937 413.467 811.912C425.6 808.312 437.6 804.15 449.6 799.088C495.2 779.625 539.2 761.625 593.6 745.987C649.2 729.9 694.533 708.187 735.333 689.175C745.067 684.675 754.667 680.737 764.133 677.137C791.2 666.675 816.933 659.25 851.467 655.312C872.133 652.95 894.267 650.475 918.667 648.562C981.733 643.5 1027.07 647.1 1069.73 634.05C1075.47 632.25 1081.07 630.112 1086.53 627.637C1113.73 615.487 1139.2 594.562 1157.47 566.325C1179.47 532.237 1190.27 488.025 1189.33 445.388C1188.53 407.363 1181.07 369.787 1179.07 331.312C1175.6 265.725 1189.07 196.425 1220.4 138.038C1238.13 105.075 1261.47 76.3875 1289.33 51.6375C1339.87 6.86248 1405.87 -24.075 1479.47 -44.6625C1520.53 -56.1375 1563.47 -63 1606.53 -64.8" stroke="#6B70F1" stroke-miterlimit="10"/>
<path d="M-64.9333 856.35C-4.00001 852.075 89.4667 846.225 176.667 846.45C221.467 846.563 264.133 847.125 303.467 843.075C343.733 839.138 378.8 831.262 416 818.55C427.867 814.5 439.6 809.887 451.2 804.375C495.6 783.45 538.133 763.875 592.133 747.675C646.667 731.362 692.8 711.112 734.667 694.912C744.667 691.087 754.533 687.825 764.267 685.013C791.867 676.688 818.133 671.625 852.533 669.038C873.2 667.463 895.333 665.213 919.2 662.963C981.333 657.225 1026.53 655.988 1067.07 639.788C1072.53 637.538 1077.87 635.062 1082.93 632.25C1108.53 618.3 1131.87 596.363 1148.67 567.788C1168.8 533.25 1178.67 489.6 1178.4 447.3C1178.13 409.5 1172.4 371.813 1171.73 333.225C1170.67 267.638 1186 198.675 1218.4 141.075C1236.8 108.338 1260.67 80.1 1288.93 55.9125C1340.13 11.925 1406.27 -18 1480 -38.5875C1520.93 -50.0625 1563.73 -56.925 1606.8 -59.175" stroke="#7069F3" stroke-miterlimit="10"/>
<path d="M-59.0667 866.25C2.66662 867.375 95.4667 864 182 863.1C226.533 862.537 269.067 861.525 308 855.675C347.867 849.712 382 839.587 418.4 825.3C430 820.687 441.333 815.625 452.533 809.775C495.733 787.388 536.8 766.125 590.533 749.588C644.133 733.05 691.067 714.263 733.733 700.763C744 697.5 754.133 695.025 764 692.888C792.133 686.7 818.933 684 853.2 682.65C874 681.75 896 679.725 919.333 677.25C980.533 670.725 1025.6 664.762 1064 645.3C1069.2 642.712 1074.27 639.675 1079.07 636.525C1103.07 620.775 1124.4 597.825 1139.73 568.912C1158.13 533.925 1166.93 490.837 1167.33 448.987C1167.73 411.412 1163.47 373.5 1164.4 334.912C1165.87 269.325 1182.8 200.7 1216.27 143.888C1235.33 111.375 1259.73 83.5875 1288.4 59.85C1340.27 16.7625 1406.53 -12.2625 1480.4 -32.85C1521.33 -44.2125 1563.87 -51.3 1606.8 -53.8875" stroke="#7662F4" stroke-miterlimit="10"/>
<path d="M-53.0667 876.15C9.46663 882.675 101.733 881.888 187.6 879.638C232 878.513 274.267 875.925 312.8 868.05C352.133 860.175 385.467 847.8 421.067 831.825C432.4 826.763 443.467 821.138 454.267 814.95C496.133 791.1 535.867 768.262 589.2 751.162C641.867 734.287 689.6 717.075 733.2 706.388C743.733 703.8 754.133 702 764.267 700.537C793.067 696.487 820.133 695.362 854.4 696.037C875.333 696.375 897.067 694.125 920 691.312C980.267 684.112 1025.07 673.2 1061.47 650.7C1066.4 647.663 1071.07 644.287 1075.6 640.8C1098 623.25 1117.33 599.288 1131.07 570.038C1147.6 534.6 1155.47 491.962 1156.53 450.675C1157.47 413.325 1154.93 375.188 1157.2 336.6C1161.07 271.013 1179.87 202.725 1214.27 146.587C1234.13 114.3 1258.93 87.075 1288 63.7875C1340.53 21.6 1406.93 -6.525 1480.8 -27C1521.6 -38.3625 1564.13 -45.45 1606.8 -48.375" stroke="#7C5BF5" stroke-miterlimit="10"/>
<path d="M-47.0667 886.05C16.2666 897.975 107.867 899.55 193.067 896.287C237.2 894.375 279.467 890.325 317.467 880.65C356.4 870.75 388.8 856.125 423.6 838.575C434.667 832.95 445.333 826.987 455.867 820.35C496.533 794.925 534.933 770.625 587.867 753.075C639.467 735.975 688.133 720.337 732.667 712.237C743.467 710.325 754.133 709.2 764.533 708.525C793.867 706.613 821.467 708.75 855.733 709.763C876.8 710.438 898.4 708.75 920.8 705.825C980.133 697.838 1024.8 682.2 1059.07 656.55C1063.73 653.062 1068.13 649.35 1072.27 645.525C1093.07 626.287 1110.27 601.2 1122.53 571.612C1137.33 535.725 1144.13 493.65 1145.73 452.7C1147.33 415.463 1146.27 377.325 1150.13 338.513C1156.27 272.925 1176.93 204.975 1212.53 149.625C1233.07 117.562 1258.53 90.7875 1287.87 68.0625C1341.07 26.775 1407.47 -0.562506 1481.6 -20.925C1522.4 -32.175 1564.67 -39.4875 1607.33 -42.75" stroke="#8154F7" stroke-miterlimit="10"/>
<path d="M-41.2 895.95C22.9333 913.275 113.867 917.438 198.533 912.825C242.533 910.35 284.533 904.725 322.133 893.025C360.667 881.213 392.267 864.337 426.133 844.987C436.933 838.912 447.333 832.387 457.467 825.412C496.933 798.525 533.867 772.65 586.533 754.537C637.2 737.212 686.667 723.038 732 717.75C743.067 716.513 754 716.175 764.667 716.063C794.533 715.725 822.667 720.787 856.8 723.037C878 724.387 899.467 723.038 921.333 719.775C979.733 711 1024.13 690.525 1056.4 661.837C1060.8 657.9 1064.93 653.738 1068.8 649.575C1087.87 628.538 1103.2 602.438 1114 572.513C1126.93 536.288 1132.8 494.662 1135.07 454.162C1137.2 417.15 1137.87 378.787 1143.07 339.975C1151.73 274.387 1174.13 206.775 1210.67 152.212C1231.87 120.487 1257.87 94.05 1287.6 71.775C1341.33 31.3875 1408 4.94997 1482.27 -15.4125C1522.93 -26.55 1565.07 -33.975 1607.6 -37.575" stroke="#874DF8" stroke-miterlimit="10"/>
<path d="M-35.2 905.85C29.6 928.462 120 935.325 204 929.475C247.733 926.325 289.6 919.125 326.8 905.625C364.8 891.787 395.6 872.662 428.667 851.737C439.2 845.1 449.2 838.125 459.067 830.812C497.333 802.462 532.8 774.9 585.067 756.45C634.8 738.788 685.067 726.3 731.333 723.6C742.667 722.925 753.867 723.262 764.667 724.05C795.2 726.3 823.6 733.275 857.733 736.763C879.067 738.9 900.4 737.775 921.733 734.175C979.2 724.612 1023.47 699.413 1053.6 667.575C1057.73 663.188 1061.6 658.687 1065.07 654.187C1082.53 631.35 1095.87 604.238 1105.07 573.975C1116.13 537.3 1121.07 496.125 1124 456.187C1126.67 419.4 1129.07 380.925 1135.73 342C1146.8 276.412 1171.07 209.25 1208.53 155.362C1230.53 123.862 1256.93 97.875 1287.2 76.1625C1341.6 36.675 1408.4 11.1375 1482.67 -9.22502C1523.33 -20.3625 1565.33 -27.9 1607.6 -31.8375" stroke="#8D46F9" stroke-miterlimit="10"/>
<path d="M-29.2 915.638C36.4 943.65 126.133 952.988 209.467 946.013C252.933 942.188 294.667 933.525 331.467 918C369.067 902.25 399.067 880.875 431.2 858.263C441.467 851.175 451.067 843.637 460.667 835.987C497.6 806.062 531.733 777.038 583.733 758.025C632.533 740.138 683.467 728.662 730.667 729.225C742.267 729.337 753.733 730.125 764.8 731.7C795.867 736.088 824.8 745.538 858.8 750.15C880.133 753.075 901.333 752.062 922.267 748.237C978.8 738 1022.8 707.85 1050.93 672.975C1054.8 668.25 1058.27 663.3 1061.47 658.35C1077.33 633.713 1088.53 605.587 1096.27 574.987C1105.6 537.862 1109.47 497.25 1113.07 457.65C1116.4 421.087 1120.27 382.387 1128.53 343.462C1142.13 277.875 1168.13 211.05 1206.67 157.95C1229.33 126.675 1256.4 101.25 1286.93 79.875C1342 41.2875 1408.93 16.65 1483.33 -3.60001C1523.87 -14.625 1565.73 -22.275 1608 -26.6625" stroke="#9240FB" stroke-miterlimit="10"/>
<path d="M-23.2 925.537C43.2 958.95 132.267 970.875 215.067 962.55C258.4 958.162 299.867 947.812 336.267 930.487C373.467 912.712 402.533 889.088 433.867 864.9C443.733 857.25 453.2 849.375 462.4 841.275C498.133 809.888 530.933 779.288 582.4 759.825C630.267 741.713 682 732.263 730.133 735.075C742 735.75 753.6 737.325 765.067 739.688C796.8 746.1 826 758.025 860 763.875C881.467 767.588 902.533 766.8 922.933 762.75C978.533 751.725 1022.27 716.85 1048.4 678.825C1052 673.65 1055.2 668.363 1058 663.075C1072.27 636.638 1081.47 607.5 1087.6 576.563C1095.07 538.988 1098.13 498.937 1102.27 459.787C1106.27 423.337 1111.73 384.525 1121.33 345.6C1137.33 280.012 1165.2 213.637 1204.67 161.212C1228.13 130.275 1255.6 105.187 1286.53 84.375C1342.27 46.6875 1409.33 22.95 1483.87 2.69997C1524.27 -8.32503 1566 -15.975 1608.13 -20.7" stroke="#9839FC" stroke-miterlimit="10"/>
<path d="M-17.3333 935.438C49.8667 974.25 138.267 988.763 220.4 979.2C263.467 974.138 304.8 962.325 340.8 942.975C377.467 923.287 405.733 897.412 436.267 871.537C445.867 863.437 454.933 855 463.867 846.563C498.267 813.713 529.733 781.65 580.933 761.625C627.867 743.4 680.267 735.413 729.333 740.813C741.467 742.163 753.333 744.413 764.933 747.45C797.2 755.888 826.933 770.4 860.8 777.375C882.4 781.875 903.333 781.2 923.2 776.925C977.867 765 1021.33 725.4 1045.47 684.337C1048.8 678.712 1051.73 672.975 1054.27 667.35C1066.93 639.225 1074.13 608.963 1078.8 577.688C1084.53 539.663 1086.53 500.063 1091.33 461.475C1095.87 425.25 1103.07 386.325 1114.13 347.288C1132.67 281.588 1162.27 215.662 1202.67 164.025C1226.8 133.312 1254.8 108.675 1286.13 88.3125C1342.53 51.525 1409.73 28.6875 1484.27 8.43751C1524.67 -2.47499 1566.27 -10.35 1608.13 -15.4125" stroke="#B467DF" stroke-miterlimit="10"/>
<path d="M-11.3333 945.338C92.4 1012.73 242.533 1017.11 345.467 955.463C381.733 933.75 409.067 905.625 438.8 878.175C484.533 835.875 515.6 789.075 579.467 763.312C636.8 740.137 705.467 735.975 765.067 755.213C798 765.788 828 782.662 861.867 790.875C951.867 812.587 1026.67 736.988 1050.67 671.85C1075.2 605.475 1070.4 533.025 1080.4 463.388C1094.13 366.975 1134.4 248.175 1200.67 166.95C1270.4 81.5625 1368.67 45.7875 1484.8 14.5125C1525.07 3.60001 1566.53 -4.27499 1608.4 -9.67499" stroke="#A32BFF" stroke-miterlimit="10"/>
</g>
</svg>
